/* XPM */
static char *_b9456cbac0148cfb7f95c4a94c6e5b93SL8a8ArMGY4qeY9[] = {
/* columns rows colors chars-per-pixel */
"16 16 4 1 ",
"  c None",
". c black",
"X c #BED6FD",
"o c #FEFFFF",
/* pixels */
"                ",
"     .          ",
"    .X.    .    ",
"     .    .o.   ",
"           .    ",
"                ",
"                ",
"                ",
"                ",
"                ",
"    .      .    ",
"   .X.    .o.   ",
"    .    .X.    ",
"          .     ",
"                ",
"                "
};
