/* XPM */
static char *_1b50de38296431db66fdc8a4ca82c7cnvFkdqsVg7cyYynL[] = {
/* columns rows colors chars-per-pixel */
"16 16 4 1 ",
"  c None",
". c black",
"X c #BED6FD",
"o c #FEFFFF",
/* pixels */
"                ",
"     ... ..     ",
"    .Xo. .o.    ",
"   .Xo.  ..o.   ",
"   ...     ..   ",
"                ",
"                ",
"                ",
"                ",
"    .      .    ",
"   .X.    .o.   ",
"   .X.   ..o.   ",
"    .    .X.    ",
"          .     ",
"                ",
"                "
};
